<svg xmlns="http://www.w3.org/2000/svg" viewBox="0 0 108.35 121.14"><defs><style>.cls-1{fill:#231f20;}</style></defs><title>Asset 11</title><g id="Layer_2" data-name="Layer 2"><g id="Layer_1-2" data-name="Layer 1"><path class="cls-1" d="M54.17,70.94c18.05,0,31.54-21.19,31.54-40.14C85.72,12.38,73,0,54.17,0S22.63,12.38,22.63,30.8C22.63,49.75,36.12,70.94,54.17,70.94ZM54.17,7c18.1,0,24.54,12.29,24.54,23.8,0,15.33-10.72,33.14-24.54,33.14S29.63,46.12,29.63,30.8C29.63,19.29,36.08,7,54.17,7Z"/><path class="cls-1" d="M99.89,86.31C91.1,78.78,75.72,75,54.17,75S17.24,78.78,8.46,86.31A23.22,23.22,0,0,0,0,104.66C0,119,33.94,121.14,54.17,121.14c14,0,26.61-1.09,35.64-3.07,4.58-1,18.53-4.06,18.53-13.41A23.22,23.22,0,0,0,99.89,86.31ZM54.17,114.14C21.64,114.14,7,108.59,7,104.66,7,94.3,15.18,82,54.17,82,74,82,87.85,85.21,95.34,91.62a16.29,16.29,0,0,1,6,13C101.35,108.59,86.71,114.14,54.17,114.14Z"/></g></g></svg>