<svg xmlns="http://www.w3.org/2000/svg" viewBox="0 0 86.32 129.15"><defs><style>.cls-1{fill:#231f20;}</style></defs><title>Asset 9</title><g id="Layer_2" data-name="Layer 2"><g id="Layer_1-2" data-name="Layer 1"><path class="cls-1" d="M43.16,129.15a7,7,0,0,1-6-3.4C26,107.15,0,61.86,0,43.16a43.16,43.16,0,0,1,86.32,0c0,18.7-26,64-37.16,82.59A7,7,0,0,1,43.16,129.15ZM43.16,7A36.2,36.2,0,0,0,7,43.16C7,57,25.68,93,43.16,122.15,60.64,93,79.32,57,79.32,43.16A36.2,36.2,0,0,0,43.16,7Zm0,59.35A23.19,23.19,0,1,1,66.35,43.16,23.21,23.21,0,0,1,43.16,66.35Zm0-39.37A16.19,16.19,0,1,0,59.35,43.16,16.21,16.21,0,0,0,43.16,27Z"/></g></g></svg>