<svg xmlns="http://www.w3.org/2000/svg" viewBox="0 0 128.87 101.63"><defs><style>.cls-1{fill:#231f20;}</style></defs><title>Asset 10</title><g id="Layer_2" data-name="Layer 2"><g id="Layer_1-2" data-name="Layer 1"><path class="cls-1" d="M125.44,8.55a58.78,58.78,0,0,0-61,0,58.78,58.78,0,0,0-61,0A7.25,7.25,0,0,0,0,14.8V92.53a7.2,7.2,0,0,0,3.42,6.23A6.69,6.69,0,0,0,10,99,52.18,52.18,0,0,1,61,100.67a6.79,6.79,0,0,0,7,0A52.18,52.18,0,0,1,118.87,99a6.69,6.69,0,0,0,6.59-.24,7.2,7.2,0,0,0,3.42-6.23V14.8A7.25,7.25,0,0,0,125.44,8.55ZM7,92.66a.6.6,0,0,1,0-.13V14.8c0-.15.08-.25,0-.23a51.88,51.88,0,0,1,53.91,0V92.67A59.07,59.07,0,0,0,7,92.66Zm114.86-.13a.6.6,0,0,1,0,.13,59.08,59.08,0,0,0-53.92,0V14.58a51.88,51.88,0,0,1,53.87-.05.48.48,0,0,1,.07.27Z"/></g></g></svg>