<svg xmlns="http://www.w3.org/2000/svg" viewBox="0 0 166.86 148.55"><title>Asset 1</title><g id="Layer_2" data-name="Layer 2"><g id="Layer_1-2" data-name="Layer 1"><path d="M164.47,89.88l-10.62-6.81L86.19,125.53a5.19,5.19,0,0,1-5.52,0L13,83.07,2.39,89.88a5.2,5.2,0,0,0,0,8.77l78.24,49.1a5.19,5.19,0,0,0,5.52,0l78.24-49.1A5.19,5.19,0,0,0,164.47,89.88Z"/><path d="M2.43,59.73l78.24,49.1a5.19,5.19,0,0,0,5.52,0l78.24-49.1a5.19,5.19,0,0,0,0-8.77L86.23.82a5.2,5.2,0,0,0-5.6,0L2.39,51A5.2,5.2,0,0,0,2.43,59.73Z"/></g></g></svg>