<svg xmlns="http://www.w3.org/2000/svg" viewBox="0 0 119.02 115.95"><defs><style>.cls-1{fill:#231f20;}</style></defs><title>Asset 4</title><g id="Layer_2" data-name="Layer 2"><g id="Layer_1-2" data-name="Layer 1"><path class="cls-1" d="M18,7a7,7,0,0,1,2,13.68l-2,.6-2-.6A7,7,0,0,1,18,7M83.24,25.72a7,7,0,1,1,0,14,7,7,0,0,1-3.33-.84l-1.84-1-1-1.84a7,7,0,0,1,1.2-8.26,6.94,6.94,0,0,1,4.94-2M18,86.64l2.45.56a10.89,10.89,0,0,1,3.4,1.42L26,89.95l1.34,2.13a10.89,10.89,0,0,1,1.42,3.4l.56,2.45-.56,2.45A11,11,0,1,1,15.57,87.19L18,86.64m87,4.31a7,7,0,1,1-6.69,9l-.6-2,.6-2a7,7,0,0,1,6.69-5M18,0a14,14,0,0,0-4,27.39v53a18,18,0,1,0,21.56,21.56h56a14,14,0,1,0,0-8h-56a17.89,17.89,0,0,0-2.32-5.59L76.59,45a14,14,0,1,0-5.66-5.66L27.61,82.68A17.89,17.89,0,0,0,22,80.37v-53A14,14,0,0,0,18,0Z"/></g></g></svg>