<svg xmlns="http://www.w3.org/2000/svg" viewBox="0 0 117.25 118.27"><defs><style>.cls-1{fill:#231f20;}</style></defs><title>Asset 7</title><g id="Layer_2" data-name="Layer 2"><g id="Layer_1-2" data-name="Layer 1"><path class="cls-1" d="M60.39,112.27a7,7,0,0,1,5.92-7.93h0a7,7,0,0,1,7.93,5.92h0a7,7,0,0,1-5.92,7.93h0a7,7,0,0,1-1,.08h0A7,7,0,0,1,60.39,112.27ZM35,113.52a7,7,0,0,1-3.49-9.27h0a7,7,0,0,1,9.27-3.48h0A7,7,0,0,1,44.31,110h0a7,7,0,0,1-6.38,4.11h0A7,7,0,0,1,35,113.52ZM89,103.46a7,7,0,0,1,.68-9.87h0a7,7,0,0,1,9.87.67h0a7,7,0,0,1-.67,9.88h0a7,7,0,0,1-4.6,1.72h0A7,7,0,0,1,89,103.46ZM9.58,91.6h0a7,7,0,0,1,2.06-9.69h0A7,7,0,0,1,21.32,84h0a7,7,0,0,1-2.06,9.68h0a7,7,0,0,1-3.81,1.13h0A7,7,0,0,1,9.58,91.6Zm98.71-11a7,7,0,0,1-4.76-8.68h0a7,7,0,0,1,8.67-4.76h0A7,7,0,0,1,117,75.83h0a7,7,0,0,1-6.72,5h0A7,7,0,0,1,108.29,80.6ZM0,59.39v-.14H0v-.1H0a7,7,0,0,1,7-7H7a7,7,0,0,1,7,7h0s0,.07,0,.1h0s0,.06,0,.08h0a7,7,0,0,1-7,7H7A7,7,0,0,1,0,59.39Zm103.47-13.2a7,7,0,0,1,4.73-8.69h0a7,7,0,0,1,8.7,4.73h0a7,7,0,0,1-4.73,8.7h0a7.26,7.26,0,0,1-2,.28h0A7,7,0,0,1,103.47,46.19ZM11.55,36.57a7,7,0,0,1-2.1-9.67h0a7,7,0,0,1,9.68-2.1h0a7,7,0,0,1,2.1,9.67h0a7,7,0,0,1-5.9,3.22h0A6.94,6.94,0,0,1,11.55,36.57Zm78-12a7,7,0,0,1-.72-9.88h0A7,7,0,0,1,98.67,14h0a7,7,0,0,1,.72,9.87h0a7,7,0,0,1-5.3,2.42h0A7,7,0,0,1,89.52,24.59ZM31.38,14.16a7,7,0,0,1,3.45-9.28h0a7,7,0,0,1,9.28,3.45h0a7,7,0,0,1-3.45,9.28h0a7,7,0,0,1-2.91.63h0A7,7,0,0,1,31.38,14.16Zm34.74-.23h0a7,7,0,0,1-6-7.91h0a7,7,0,0,1,7.91-6h0A7,7,0,0,1,74,8h0a7,7,0,0,1-6.92,6h0A6.6,6.6,0,0,1,66.12,13.93Z"/></g></g></svg>