<?xml version="1.0" encoding="utf-8"?>
<!-- Generator: Adobe Illustrator 22.0.1, SVG Export Plug-In . SVG Version: 6.00 Build 0)  -->
<svg version="1.1" id="Layer_1" xmlns="http://www.w3.org/2000/svg" xmlns:xlink="http://www.w3.org/1999/xlink" x="0px" y="0px"
	 viewBox="0 0 200 200" style="enable-background:new 0 0 200 200;" xml:space="preserve">
<style type="text/css">
	.st0{display:none;}
	.st1{display:inline;}
	.st2{fill:#231F20;}
</style>
<g id="Layer_1_1_" class="st0">
	<title>Asset 4</title>
	<g id="Layer_2_1_" class="st1">
		<g id="Layer_1-2">
			<path class="st2" d="M58.5,49c3.9,0,7,3.2,6.9,7.1c0,3-2,5.7-4.9,6.6l-2,0.6l-2-0.6c-3.7-1.2-5.7-5.1-4.6-8.8
				C52.8,51,55.5,49.1,58.5,49 M123.7,67.7c3.9,0,7,3.1,7,7s-3.1,7-7,7c-1.2,0-2.3-0.3-3.3-0.8l-1.8-1l-1-1.8
				c-1.5-2.7-1-6.1,1.2-8.3C120.1,68.5,121.9,67.8,123.7,67.7 M58.5,128.7l2.5,0.6c1.2,0.3,2.4,0.8,3.4,1.4l2.2,1.3l1.3,2.1
				c0.7,1,1.1,2.2,1.4,3.4l0.6,2.4l-0.6,2.5c-1.4,5.9-7.3,9.6-13.2,8.2c-5.9-1.4-9.6-7.3-8.2-13.2c0.9-4.1,4.1-7.3,8.2-8.2
				L58.5,128.7 M145.5,133c3.9,0,7,3.1,7,7s-3.1,7-7,7c-3.1,0-5.8-2-6.7-5l-0.6-2l0.6-2C139.7,135,142.4,133,145.5,133 M58.5,42
				c-7.7,0-14,6.4-13.9,14.1c0,6.1,4.1,11.5,9.9,13.3v53c-9.7,2.2-15.8,11.9-13.5,21.6c2.2,9.7,11.9,15.8,21.6,13.5
				c6.7-1.5,12-6.8,13.5-13.5h56c2.2,7.4,10,11.6,17.4,9.4c7.4-2.2,11.6-10,9.4-17.4c-2.2-7.4-10-11.6-17.4-9.4
				c-4.5,1.3-8.1,4.9-9.4,9.4h-56c-0.5-2-1.2-3.9-2.3-5.6L117.1,87c6.8,3.7,15.3,1.1,19-5.7s1.1-15.3-5.7-19
				c-6.8-3.7-15.3-1.1-19,5.7c-2.2,4.2-2.2,9.2,0,13.3l-43.3,43.3c-1.7-1.1-3.6-1.9-5.6-2.3v-53C69.9,67,74,59.2,71.7,51.8
				C69.9,46.1,64.6,42.1,58.5,42z"/>
		</g>
	</g>
</g>
<g id="Layer_2_3_" class="st0">
	<g id="Layer_2_2_" class="st1">
		<g id="Layer_1-2_1_">
			<path class="st2" d="M101.9,153.3c-0.6-3.8,2.1-7.4,5.9-7.9l0,0c3.8-0.6,7.4,2.1,7.9,5.9l0,0c0.6,3.8-2.1,7.4-5.9,7.9l0,0
				c-0.3,0.1-0.7,0.1-1,0.1l0,0C105.3,159.3,102.4,156.7,101.9,153.3z M76.5,154.5c-3.5-1.6-5.1-5.7-3.5-9.3l0,0l0,0
				c1.6-3.5,5.7-5.1,9.3-3.5l0,0l0,0c3.5,1.6,5.1,5.7,3.5,9.2l0,0c-1.1,2.5-3.6,4.1-6.4,4.1l0,0C78.4,155.2,77.4,155,76.5,154.5z
				 M130.5,144.5c-2.5-2.9-2.2-7.3,0.7-9.9l0,0c2.9-2.5,7.3-2.2,9.9,0.7l0,0c2.5,2.9,2.2,7.3-0.7,9.9l0,0l0,0
				c-1.3,1.1-2.9,1.7-4.6,1.7l0,0C133.7,146.9,131.8,146,130.5,144.5z M51.1,132.6L51.1,132.6c-2.1-3.2-1.2-7.6,2.1-9.7l0,0l0,0
				c3.2-2.1,7.6-1.2,9.7,2.1l0,0l0,0c2.1,3.2,1.2,7.6-2.1,9.7l0,0c-1.1,0.7-2.5,1.1-3.8,1.1l0,0C54.6,135.8,52.4,134.6,51.1,132.6z
				 M149.8,121.6c-3.7-1.1-5.8-5-4.8-8.7l0,0l0,0c1.1-3.7,5-5.8,8.7-4.8l0,0c3.7,1.1,5.9,4.9,4.8,8.7l0,0l0,0c-0.9,3-3.6,5-6.7,5
				l0,0C151.1,121.9,150.4,121.8,149.8,121.6z M41.5,100.4L41.5,100.4L41.5,100.4v-0.2l0,0c0-3.9,3.1-7,7-7l0,0l0,0c3.9,0,7,3.1,7,7
				l0,0l0,0v0.1l0,0v0.1l0,0c0,3.9-3.1,7-7,7l0,0C44.6,107.4,41.5,104.3,41.5,100.4z M145,87.2c-1.1-3.7,1-7.6,4.7-8.7l0,0
				c3.7-1.1,7.6,1,8.7,4.7l0,0l0,0c1.1,3.7-1,7.6-4.7,8.7l0,0l0,0c-0.7,0.2-1.3,0.3-2,0.3l0,0C148.6,92.2,145.8,90.2,145,87.2z
				 M53,77.6c-3.2-2.1-4.2-6.4-2.1-9.7l0,0c2.1-3.3,6.4-4.2,9.7-2.1l0,0l0,0c3.2,2.1,4.2,6.4,2.1,9.7l0,0c-1.3,2-3.5,3.2-5.9,3.2
				l0,0C55.5,78.7,54.2,78.3,53,77.6z M131,65.6c-2.9-2.5-3.3-6.9-0.7-9.9l0,0l0,0c2.5-2.9,6.9-3.2,9.8-0.7l0,0
				c2.9,2.5,3.2,6.9,0.7,9.9l0,0c-1.3,1.5-3.3,2.4-5.3,2.4l0,0C133.9,67.3,132.3,66.7,131,65.6L131,65.6z M72.9,55.2
				c-1.6-3.5-0.1-7.7,3.4-9.3l0,0l0,0c3.5-1.6,7.7-0.1,9.3,3.4l0,0l0,0c1.6,3.5,0.1,7.7-3.4,9.3l0,0l0,0c-0.9,0.4-1.9,0.6-2.9,0.6
				l0,0C76.5,59.3,74,57.7,72.9,55.2z M107.6,55L107.6,55c-3.8-0.5-6.5-4-6-7.9l0,0l0,0c0.5-3.8,4-6.5,7.9-6l0,0l0,0
				c3.8,0.5,6.5,4.1,6,7.9v0.1l0,0c-0.5,3.4-3.4,6-6.9,6l0,0C108.2,55,107.9,55,107.6,55z"/>
		</g>
	</g>
</g>
<g id="Layer_4" class="st0">
	<g id="Layer_2_5_" class="st1">
		<g id="Layer_1-2_3_">
			<path class="st2" d="M139.6,72.3v28.9c-0.1,18-14.6,32.7-32.7,32.9H101h-5.9c-18-0.2-32.6-14.8-32.7-32.9V72.3H139.6 M121.9,37
				h-1.5c-2.9,0-5.2,2.3-5.2,5.2v23.1H86.8V42.2c0-2.9-2.3-5.2-5.2-5.2h-1.5c-2.9,0-5.2,2.3-5.2,5.2v23.1H61.5c-3.3,0-6,2.7-6,6
				v29.9c0,21.9,17.7,39.7,39.6,39.9v21.8h11.8v-21.8c21.9-0.1,39.6-17.9,39.6-39.9V71.3c0-3.3-2.7-6-6-6h-13.4V42.2
				C127.1,39.3,124.8,37,121.9,37z"/>
		</g>
	</g>
</g>
<g id="Layer_5" class="st0">
	<g id="Layer_2_6_" class="st1">
		<g id="Layer_1-2_4_">
			<path class="st2" d="M109.2,100l41.6-41.6c2.1-2.1,2.1-5.6,0-7.8s-5.6-2.1-7.8,0l0,0l-41.5,41.6L59.9,50.6
				c-2.1-2.1-5.6-2.1-7.8,0s-2.1,5.6,0,7.8L93.7,100l-41.6,41.5c-2.1,2.1-2.1,5.6,0,7.8s5.6,2.1,7.8,0l41.6-41.6l41.5,41.6
				c2.1,2.1,5.6,2.1,7.8,0c2.1-2.1,2.1-5.6,0-7.8L109.2,100z"/>
		</g>
	</g>
</g>
<g>
	<path d="M148.6,44H51.9c-4.9,0-8.8,4-8.8,9v96.3c0,5,4,9,8.8,9h96.7c4.9,0,8.8-4,8.8-9V53C157.4,48.1,153.4,44,148.6,44z
		 M150.4,149.3c0,1.1-0.8,2-1.8,2H51.9c-0.5,0-0.9-0.2-1.3-0.6L77.4,124c-5.9-5.9-9.5-13.9-9.5-22.9c0-17.9,14.5-32.4,32.4-32.4
		c8.9,0,17,3.6,22.9,9.5l26.7-26.7c0.3,0.4,0.6,0.9,0.6,1.4V149.3z"/>
	<path d="M132.6,101.2c0-8.9-3.6-17-9.5-22.9L77.4,124c5.9,5.9,13.9,9.5,22.9,9.5C118.1,133.5,132.6,119,132.6,101.2z"/>
</g>
</svg>
