<?xml version="1.0" encoding="utf-8"?>
<!-- Generator: Adobe Illustrator 22.0.1, SVG Export Plug-In . SVG Version: 6.00 Build 0)  -->
<svg version="1.1" id="Layer_1" xmlns="http://www.w3.org/2000/svg" xmlns:xlink="http://www.w3.org/1999/xlink" x="0px" y="0px"
	 width="200px" height="200px" viewBox="0 0 200 200" style="enable-background:new 0 0 200 200;" xml:space="preserve">
<style type="text/css">
	.st0{display:none;}
	.st1{display:inline;}
	.st2{fill:#231F20;}
	.st3{fill:none;stroke:#000000;stroke-width:8;stroke-miterlimit:10;}
	.st4{fill:none;stroke:#231F20;stroke-width:8;stroke-miterlimit:10;}
</style>
<g id="Layer_1_1_" class="st0">
	<title>Asset 4</title>
	<g id="Layer_2_1_" class="st1">
		<g id="Layer_1-2">
			<path class="st2" d="M58.5,49c3.9,0,7,3.2,6.9,7.1c0,3-2,5.7-4.9,6.6l-2,0.6l-2-0.6c-3.7-1.2-5.7-5.1-4.6-8.8
				C52.8,51,55.5,49.1,58.5,49 M123.7,67.7c3.9,0,7,3.1,7,7s-3.1,7-7,7c-1.2,0-2.3-0.3-3.3-0.8l-1.8-1l-1-1.8
				c-1.5-2.7-1-6.1,1.2-8.3C120.1,68.5,121.9,67.8,123.7,67.7 M58.5,128.7l2.5,0.6c1.2,0.3,2.4,0.8,3.4,1.4l2.2,1.3l1.3,2.1
				c0.7,1,1.1,2.2,1.4,3.4l0.6,2.4l-0.6,2.5c-1.4,5.9-7.3,9.6-13.2,8.2c-5.9-1.4-9.6-7.3-8.2-13.2c0.9-4.1,4.1-7.3,8.2-8.2
				L58.5,128.7 M145.5,133c3.9,0,7,3.1,7,7s-3.1,7-7,7c-3.1,0-5.8-2-6.7-5l-0.6-2l0.6-2C139.7,135,142.4,133,145.5,133 M58.5,42
				c-7.7,0-14,6.4-13.9,14.1c0,6.1,4.1,11.5,9.9,13.3v53c-9.7,2.2-15.8,11.9-13.5,21.6c2.2,9.7,11.9,15.8,21.6,13.5
				c6.7-1.5,12-6.8,13.5-13.5h56c2.2,7.4,10,11.6,17.4,9.4c7.4-2.2,11.6-10,9.4-17.4c-2.2-7.4-10-11.6-17.4-9.4
				c-4.5,1.3-8.1,4.9-9.4,9.4h-56c-0.5-2-1.2-3.9-2.3-5.6L117.1,87c6.8,3.7,15.3,1.1,19-5.7s1.1-15.3-5.7-19
				c-6.8-3.7-15.3-1.1-19,5.7c-2.2,4.2-2.2,9.2,0,13.3l-43.3,43.3c-1.7-1.1-3.6-1.9-5.6-2.3v-53C69.9,67,74,59.2,71.7,51.8
				C69.9,46.1,64.6,42.1,58.5,42z"/>
		</g>
	</g>
</g>
<g id="Layer_3" class="st0">
	<g id="Layer_2_4_" class="st1">
		<g id="Layer_1-2_2_">
			<path class="st2" d="M153.4,43H47.8c-5.1-0.1-9.2,3.9-9.3,9v96.3c0.1,5.1,4.3,9.1,9.3,9h105.6c5.1,0.1,9.2-3.9,9.3-9V52
				C162.6,47,158.4,43,153.4,43z M47.8,50h105.6c1.2-0.1,2.2,0.8,2.3,2v17.8H45.5V52C45.6,50.8,46.6,50,47.8,50z M84.6,123.5v-19.8
				h32.1v19.8H84.6z M116.6,130.5v19.8h-32v-19.8H116.6z M116.6,76.9v19.8h-32V76.8L116.6,76.9z M77.6,96.7H45.5V76.8h32.1V96.7z
				 M77.6,103.7v19.8H45.5v-19.8H77.6z M123.6,103.7h32.1v19.8h-32.1V103.7z M123.6,96.7V76.8h32.1v19.8L123.6,96.7L123.6,96.7z
				 M45.5,148.3v-17.8h32.1v19.8H47.8C46.6,150.4,45.6,149.5,45.5,148.3z M153.4,150.3h-29.8v-19.8h32.1v17.8
				C155.6,149.5,154.6,150.4,153.4,150.3L153.4,150.3z"/>
		</g>
	</g>
</g>
<g id="Layer_4" class="st0">
	<g id="Layer_2_5_" class="st1">
		<g id="Layer_1-2_3_">
			<path class="st2" d="M139.6,72.3v28.9c-0.1,18-14.6,32.7-32.7,32.9H101h-5.9c-18-0.2-32.6-14.8-32.7-32.9V72.3H139.6 M121.9,37
				h-1.5c-2.9,0-5.2,2.3-5.2,5.2v23.1H86.8V42.2c0-2.9-2.3-5.2-5.2-5.2h-1.5c-2.9,0-5.2,2.3-5.2,5.2v23.1H61.5c-3.3,0-6,2.7-6,6
				v29.9c0,21.9,17.7,39.7,39.6,39.9v21.8h11.8v-21.8c21.9-0.1,39.6-17.9,39.6-39.9V71.3c0-3.3-2.7-6-6-6h-13.4V42.2
				C127.1,39.3,124.8,37,121.9,37z"/>
		</g>
	</g>
</g>
<g id="Layer_5" class="st0">
	<g id="Layer_2_6_" class="st1">
		<g id="Layer_1-2_4_">
			<path class="st2" d="M109.2,100l41.6-41.6c2.1-2.1,2.1-5.6,0-7.8s-5.6-2.1-7.8,0l0,0l-41.5,41.6L59.9,50.6
				c-2.1-2.1-5.6-2.1-7.8,0s-2.1,5.6,0,7.8L93.7,100l-41.6,41.5c-2.1,2.1-2.1,5.6,0,7.8s5.6,2.1,7.8,0l41.6-41.6l41.5,41.6
				c2.1,2.1,5.6,2.1,7.8,0c2.1-2.1,2.1-5.6,0-7.8L109.2,100z"/>
		</g>
	</g>
</g>
<g>
	<circle class="st3" cx="130.7" cy="131.1" r="18"/>
	<circle class="st3" cx="65.5" cy="65.9" r="14"/>
	<line class="st4" x1="75.4" y1="75.8" x2="118" y2="118.4"/>
</g>
</svg>
