<svg xmlns="http://www.w3.org/2000/svg" viewBox="0 0 124.21 114.29"><defs><style>.cls-1{fill:#231f20;}</style></defs><title>Asset 8</title><g id="Layer_2" data-name="Layer 2"><g id="Layer_1-2" data-name="Layer 1"><path class="cls-1" d="M114.9,0H9.31A9.18,9.18,0,0,0,0,9v96.27a9.18,9.18,0,0,0,9.31,9H114.9a9.18,9.18,0,0,0,9.31-9V9A9.18,9.18,0,0,0,114.9,0ZM9.31,7H114.9a2.18,2.18,0,0,1,2.31,2V26.82H7V9A2.18,2.18,0,0,1,9.31,7ZM46.07,80.47V60.65H78.14V80.47Zm32.07,7v19.82H46.07V87.47Zm0-53.64V53.65H46.07V33.82ZM39.07,53.65H7V33.82H39.07Zm0,7V80.47H7V60.65Zm46.07,0h32.07V80.47H85.14Zm0-7V33.82h32.07V53.65ZM7,105.28V87.47H39.07v19.82H9.31A2.18,2.18,0,0,1,7,105.28Zm107.9,2H85.14V87.47h32.07v17.81A2.18,2.18,0,0,1,114.9,107.29Z"/></g></g></svg>