<svg xmlns="http://www.w3.org/2000/svg" viewBox="0 0 91.07 125.89"><defs><style>.cls-1{fill:#231f20;}</style></defs><title>Asset 5</title><g id="Layer_2" data-name="Layer 2"><g id="Layer_1-2" data-name="Layer 1"><path class="cls-1" d="M84.07,35.25V64.2A33,33,0,0,1,51.41,97.07l-5.87,0-5.87,0A33,33,0,0,1,7,64.2V35.25H84.07M66.46,0H65a5.2,5.2,0,0,0-5.18,5.18V28.25H31.26V5.18A5.2,5.2,0,0,0,26.08,0H24.61a5.2,5.2,0,0,0-5.18,5.18V28.25H6a6,6,0,0,0-6,6V64.2a39.88,39.88,0,0,0,39.62,39.87v21.82H51.45V104.07A39.88,39.88,0,0,0,91.07,64.2V34.28a6,6,0,0,0-6-6H71.64V5.18A5.2,5.2,0,0,0,66.46,0Z"/></g></g></svg>