<svg xmlns="http://www.w3.org/2000/svg" viewBox="0 0 130.87 103.63"><defs><style>.cls-1{fill:#231f20;}</style></defs><title>bibliography</title><g id="Layer_2" data-name="Layer 2"><g id="Layer_1-2" data-name="Layer 1"><path class="cls-1" d="M126.95,8.7a59.75,59.75,0,0,0-61.51-.34A59.74,59.74,0,0,0,3.92,8.7,8.26,8.26,0,0,0,0,15.8V93.53a8.2,8.2,0,0,0,3.9,7.08,7.68,7.68,0,0,0,7.57.27,51.19,51.19,0,0,1,50,1.65,7.79,7.79,0,0,0,8,0,51.19,51.19,0,0,1,50-1.65,7.68,7.68,0,0,0,7.57-.27,8.2,8.2,0,0,0,3.9-7.08V15.8A8.26,8.26,0,0,0,126.95,8.7ZM9,92.06V16.15a50.85,50.85,0,0,1,51.94,0V92.07A60,60,0,0,0,9,92.06Zm112.87,0a60,60,0,0,0-51.94,0V16.16a50.86,50.86,0,0,1,51.94,0Z"/></g></g></svg>