<?xml version="1.0" encoding="utf-8"?>
<!-- Generator: Adobe Illustrator 22.0.1, SVG Export Plug-In . SVG Version: 6.00 Build 0)  -->
<svg version="1.1" id="Layer_1" xmlns="http://www.w3.org/2000/svg" xmlns:xlink="http://www.w3.org/1999/xlink" x="0px" y="0px"
	 viewBox="0 0 373.6 109.7" style="enable-background:new 0 0 373.6 109.7;" xml:space="preserve">
<style type="text/css">
	.st0{fill:none;}
	.st1{enable-background:new    ;}
</style>
<rect x="95.2" y="25.9" class="st0" width="284.9" height="65.1"/>
<g class="st1">
	<path d="M100.6,28.7h16.6c14.5,0,23.8,9.6,23.8,24.6s-9.4,24.6-23.8,24.6h-16.6V28.7z M116.8,70.4c10.3,0,15.8-6.6,15.8-17.1
		c0-10.6-5.5-17.2-15.8-17.2h-7.9v34.3H116.8z"/>
	<path d="M168.1,77.9v-2c-1.2,1.2-4.8,2.6-8.8,2.6c-7.3,0-13.3-4.3-13.3-11.6c0-6.7,6-11.4,13.8-11.4c3.2,0,6.8,1.1,8.2,2.2v-2.9
		c0-3.6-2.2-6.4-6.8-6.4c-3.2,0-5.2,1.4-6.1,3.8h-7.7c1-6.1,6.6-10.6,13.9-10.6c9,0,14.2,5,14.2,13v23.3H168.1z M168.1,65.5
		c-0.9-2.2-4.1-3.6-7.3-3.6c-3.6,0-7.4,1.5-7.4,5c0,3.6,3.8,5.1,7.4,5.1c3.2,0,6.4-1.4,7.3-3.6V65.5z"/>
	<path d="M186.6,49H181v-6.6h5.6v-9.5h8v9.5h8V49h-8v18.4c0,2.9,1.6,4.2,4.2,4.2c1.6,0,3.4-0.6,4.6-1.4v7.3c-1.4,0.8-3.5,1.3-6,1.3
		c-6.3,0-10.8-3.4-10.8-10.4V49z"/>
	<path d="M230.5,77.9v-2c-1.2,1.2-4.8,2.6-8.8,2.6c-7.3,0-13.3-4.3-13.3-11.6c0-6.7,6-11.4,13.8-11.4c3.2,0,6.8,1.1,8.2,2.2v-2.9
		c0-3.6-2.2-6.4-6.8-6.4c-3.2,0-5.2,1.4-6.1,3.8H210c1-6.1,6.6-10.6,13.9-10.6c9,0,14.2,5,14.2,13v23.3H230.5z M230.5,65.5
		c-0.9-2.2-4.1-3.6-7.3-3.6c-3.6,0-7.4,1.5-7.4,5c0,3.6,3.8,5.1,7.4,5.1c3.2,0,6.4-1.4,7.3-3.6V65.5z"/>
</g>
<g class="st1">
	<path d="M275.6,59.5v18.3h-8.3V28.7h19c10.2,0,16.8,5.3,16.8,15.4c0,10-6.6,15.4-16.8,15.4H275.6z M286.1,35.9h-10.5v16.4h10.5
		c5.8,0,8.7-3.4,8.7-8.2C294.8,39.3,291.9,35.9,286.1,35.9z"/>
</g>
<g class="st1">
	<path d="M336.5,66.8c-1.2,7-6.4,11.8-15,11.8c-9.9,0-16.8-7.5-16.8-18.5c0-10.6,7-18.6,16.6-18.6c10,0,15.4,7.1,15.4,17.5v2.9
		h-24.2c0.2,6.2,3.8,10,9,10c3.8,0,6.7-1.7,7.6-5.1H336.5z M312.8,56.1h16.1c-0.1-4.3-2.6-7.8-7.4-7.8
		C317.1,48.3,313.8,51,312.8,56.1z"/>
</g>
<g class="st1">
	<path d="M342.6,42.3h8v3.4c1.9-2.2,5.4-4.2,9.6-4.2c8.1,0,12.6,5.4,12.6,13.2v23.1h-8V56.1c0-4.4-2.2-7.3-6.7-7.3
		c-3.4,0-6.6,2.2-7.4,5.7v23.4h-8V42.3z"/>
</g>
<path d="M80.1,93.8c-3.2,0-5.9,2-7,4.7l-37.7-6.8c0-1.2-0.3-2.3-0.9-3.3l13.3-10.9c1.3,1.1,2.9,1.7,4.7,1.7c4.1,0,7.5-3.4,7.5-7.5
	s-3.4-7.5-7.5-7.5c-0.3,0-0.6,0-0.9,0.1c-1.6-3.8-3.4-9-4.5-15C44.9,37.1,47,28.8,47,28.8L21.7,3.5l-10.2,6.9L1.3,17.2l13.7,33
	c0,0,8.5,1.2,18.9,7.9c5.1,3.3,9.3,7,12.2,9.9c-0.6,1.1-1,2.4-1,3.7c0,1.3,0.3,2.4,0.9,3.5L32.6,86.1c-1.3-1.1-2.9-1.7-4.7-1.7
	c-4.1,0-7.5,3.4-7.5,7.5s3.4,7.5,7.5,7.5c3.2,0,5.9-2,7-4.7l37.7,6.8c0.1,4.1,3.4,7.3,7.5,7.3c4.1,0,7.5-3.4,7.5-7.5
	C87.6,97.2,84.2,93.8,80.1,93.8z M27.3,36.7c-0.9,0.4-1.8,0.6-2.8,0.6c-4.1,0-7.5-3.4-7.5-7.5c0-4.1,3.4-7.5,7.5-7.5
	s7.5,3.4,7.5,7.5c0,2.1-0.8,3.9-2.2,5.3l19.9,29.7c-0.9,0.4-1.8,1-2.5,1.7L27.3,36.7z"/>
</svg>
