<?xml version="1.0" encoding="UTF-8" standalone="no"?>
<!-- Generator: Adobe Illustrator 20.1.0, SVG Export Plug-In . SVG Version: 6.00 Build 0)  -->

<svg
   xmlns:dc="http://purl.org/dc/elements/1.1/"
   xmlns:cc="http://creativecommons.org/ns#"
   xmlns:rdf="http://www.w3.org/1999/02/22-rdf-syntax-ns#"
   xmlns:svg="http://www.w3.org/2000/svg"
   xmlns="http://www.w3.org/2000/svg"
   xmlns:sodipodi="http://sodipodi.sourceforge.net/DTD/sodipodi-0.dtd"
   xmlns:inkscape="http://www.inkscape.org/namespaces/inkscape"
   version="1.1"
   id="Layer_1"
   x="0px"
   y="0px"
   viewBox="0 0 424 190.2"
   style="enable-background:new 0 0 424 190.2;"
   xml:space="preserve"
   inkscape:version="0.91 r13725"
   sodipodi:docname="Fibra.svg"><metadata
     id="metadata3526"><rdf:RDF><cc:Work
         rdf:about=""><dc:format>image/svg+xml</dc:format><dc:type
           rdf:resource="http://purl.org/dc/dcmitype/StillImage" /></cc:Work></rdf:RDF></metadata><defs
     id="defs3524" /><sodipodi:namedview
     pagecolor="#ffffff"
     bordercolor="#666666"
     borderopacity="1"
     objecttolerance="10"
     gridtolerance="10"
     guidetolerance="10"
     inkscape:pageopacity="0"
     inkscape:pageshadow="2"
     inkscape:window-width="1759"
     inkscape:window-height="1087"
     id="namedview3522"
     showgrid="false"
     inkscape:zoom="1"
     inkscape:cx="-180.74099"
     inkscape:cy="123.53252"
     inkscape:window-x="0"
     inkscape:window-y="0"
     inkscape:window-maximized="0"
     inkscape:current-layer="Layer_1" /><style
     type="text/css"
     id="style3452">
	.st0{fill:none;stroke:url(#SVGID_1_);stroke-linecap:round;stroke-miterlimit:10;}
	.st1{fill:none;stroke:url(#SVGID_2_);stroke-linecap:round;stroke-miterlimit:10;}
	.st2{fill:none;stroke:url(#SVGID_3_);stroke-miterlimit:10;}
	.st3{fill:none;stroke:url(#SVGID_4_);stroke-linecap:round;stroke-miterlimit:10;}
</style><path
     inkscape:connector-curvature="0"
     id="path3455"
     d="m 172,24.4 0,18.6 21.3,0 0,1.2 -21.3,0 0,21.4 -1.3,0 0,-42.4 24.2,0 0,1.2 c 0,0 -22.9,0 -22.9,0 z"
     style="fill:#ffffff;fill-opacity:0;stroke:#ffffff;stroke-opacity:0" /><path
     inkscape:connector-curvature="0"
     id="path3457"
     d="m 208.7,65.7 0,-42.5 1.3,0 0,42.5 -1.3,0 z"
     style="fill:#ffffff;fill-opacity:0;stroke:#ffffff;stroke-opacity:0" /><path
     inkscape:connector-curvature="0"
     id="path3459"
     d="m 261.9,54.3 c 0,2.3 -0.4,4.2 -1.3,5.6 -0.9,1.4 -2,2.6 -3.3,3.5 -1.3,0.8 -2.8,1.4 -4.4,1.8 -1.6,0.4 -3.2,0.5 -4.6,0.5 l -13,0 0,-42.5 11.6,0 c 1.6,0 3.2,0.2 4.8,0.5 1.6,0.3 3,0.9 4.2,1.6 1.2,0.8 2.2,1.8 3,3.1 0.8,1.3 1.1,2.9 1.1,4.9 0,1.5 -0.2,2.8 -0.7,4 -0.5,1.1 -1.1,2.1 -2,2.9 -0.8,0.8 -1.8,1.5 -2.8,2 -1,0.5 -2.1,0.9 -3.2,1.1 l 0,0.1 c 1.1,0.1 2.2,0.4 3.5,0.9 1.2,0.5 2.4,1.1 3.5,2 1.1,0.9 1.9,2 2.6,3.4 0.6,1.1 1,2.7 1,4.6 z m -3.3,-20.9 c 0,-1.7 -0.3,-3.2 -1,-4.3 -0.7,-1.2 -1.6,-2.1 -2.7,-2.8 -1.1,-0.7 -2.4,-1.2 -3.9,-1.5 -1.5,-0.3 -3,-0.4 -4.6,-0.4 l -9.9,0 0,18.3 10.2,0 c 1.4,0 2.9,-0.2 4.3,-0.5 1.4,-0.3 2.7,-0.9 3.8,-1.6 1.1,-0.7 2,-1.7 2.7,-2.9 0.7,-1.3 1.1,-2.7 1.1,-4.3 z m 2,21.1 c 0,-1.9 -0.4,-3.6 -1.2,-4.9 -0.8,-1.4 -1.8,-2.5 -3,-3.3 -1.2,-0.8 -2.5,-1.4 -4,-1.8 -1.4,-0.4 -2.8,-0.6 -4.2,-0.6 l -11.8,0 0,20.6 11.1,0 c 1.8,0 3.6,-0.2 5.2,-0.6 1.6,-0.4 3,-1 4.1,-1.8 1.1,-0.8 2,-1.8 2.7,-3.1 0.7,-1.2 1.1,-2.7 1.1,-4.5 z"
     style="fill:#ffffff;fill-opacity:0;stroke:#ffffff;stroke-opacity:0" /><path
     inkscape:connector-curvature="0"
     id="path3461"
     d="m 300.4,65.7 -12.8,-21.4 -10,0 0,21.4 -1.3,0 0,-42.5 11.8,0 c 1.6,0 3.1,0.1 4.7,0.4 1.6,0.3 3,0.8 4.3,1.6 1.3,0.8 2.3,1.9 3.1,3.2 0.8,1.4 1.2,3.1 1.2,5.3 0,2 -0.4,3.7 -1.1,5 -0.8,1.3 -1.7,2.4 -2.9,3.2 -1.2,0.8 -2.5,1.4 -4,1.8 -1.5,0.4 -2.9,0.5 -4.3,0.5 l 12.9,21.5 -1.6,0 z m -0.3,-32 c 0,-1.8 -0.4,-3.4 -1.1,-4.6 -0.7,-1.2 -1.7,-2.2 -2.9,-2.9 -1.2,-0.7 -2.5,-1.2 -4.1,-1.5 -1.5,-0.3 -3.1,-0.4 -4.7,-0.4 l -9.7,0 0,18.8 10.4,0 c 3.9,0 6.9,-0.8 9,-2.5 2,-1.6 3.1,-3.9 3.1,-6.9 z"
     style="fill:#ffffff;fill-opacity:0;stroke:#ffffff;stroke-opacity:0" /><path
     inkscape:connector-curvature="0"
     id="path3463"
     d="m 347.5,65.7 -5,-12.2 -24.7,0 -5.2,12.2 -1.4,0 18.4,-42.5 1.7,0 17.7,42.5 -1.5,0 z M 330.3,24 318.2,52.3 342,52.3 330.3,24 Z"
     style="fill:#ffffff;fill-opacity:0;stroke:#ffffff;stroke-opacity:0" /><g
     id="g3465"
     style="fill:#ffffff;fill-opacity:0;stroke:#ffffff;stroke-opacity:0"><path
       inkscape:connector-curvature="0"
       id="path3467"
       d="m 221.6,33.2 c -0.4,0 -0.7,-0.1 -1,-0.4 -0.3,-0.3 -0.4,-0.7 -0.4,-1.1 0,-0.4 0.1,-0.8 0.4,-1.1 0.3,-0.3 0.6,-0.4 1,-0.4 0.4,0 0.7,0.1 1,0.4 0.3,0.3 0.4,0.6 0.4,1.1 0,0.5 -0.1,0.9 -0.4,1.1 -0.4,0.2 -0.7,0.4 -1,0.4 z m 0,24.9 c -0.4,0 -0.7,-0.1 -1,-0.4 -0.3,-0.3 -0.4,-0.7 -0.4,-1.1 0,-0.4 0.1,-0.8 0.4,-1.1 0.3,-0.3 0.6,-0.4 1,-0.4 0.4,0 0.7,0.1 1,0.4 0.3,0.3 0.4,0.6 0.4,1.1 0,0.5 -0.1,0.9 -0.4,1.1 -0.4,0.2 -0.7,0.4 -1,0.4 z"
       style="fill:#ffffff;fill-opacity:0;stroke:#ffffff;stroke-opacity:0" /></g><g
     id="Lines"><linearGradient
       id="SVGID_1_"
       gradientUnits="userSpaceOnUse"
       x1="89.5"
       y1="96.9"
       x2="296.3"
       y2="96.9"
       gradientTransform="matrix(1 0 0 -1 0 192)"><stop
         offset="2.482297e-03"
         style="stop-color:#000000;stop-opacity:0.2"
         id="stop3471" /><stop
         offset="0.1298"
         style="stop-color:#000000;stop-opacity:0.2989"
         id="stop3473" /><stop
         offset="0.9034"
         style="stop-color:#000000;stop-opacity:0.9"
         id="stop3475" /><stop
         offset="0.9864"
         style="stop-color:#000000;stop-opacity:0.2989"
         id="stop3477" /><stop
         offset="1"
         style="stop-color:#000000;stop-opacity:0.2"
         id="stop3479" /></linearGradient><line
       class="st0"
       x1="90"
       y1="0.5"
       x2="295.8"
       y2="189.7"
       id="line3481" /><linearGradient
       id="SVGID_2_"
       gradientUnits="userSpaceOnUse"
       x1="50.9264"
       y1="0.2387"
       x2="337.2736"
       y2="165.5613"
       gradientTransform="matrix(1 0 0 -1 0 192)"><stop
         offset="0"
         style="stop-color:#000000;stop-opacity:0.2"
         id="stop3484" /><stop
         offset="1.364762e-02"
         style="stop-color:#000000;stop-opacity:0.2989"
         id="stop3486" /><stop
         offset="9.655885e-02"
         style="stop-color:#000000;stop-opacity:0.9"
         id="stop3488" /><stop
         offset="0.8702"
         style="stop-color:#000000;stop-opacity:0.2989"
         id="stop3490" /><stop
         offset="0.9975"
         style="stop-color:#000000;stop-opacity:0.2"
         id="stop3492" /></linearGradient><line
       class="st1"
       x1="26.7"
       y1="148.8"
       x2="361.5"
       y2="69.4"
       id="line3494" /><linearGradient
       id="SVGID_3_"
       gradientUnits="userSpaceOnUse"
       x1="24.9983"
       y1="97.55"
       x2="403.0017"
       y2="97.55"
       gradientTransform="matrix(1 0 0 -1 0 192)"><stop
         offset="2.482297e-03"
         style="stop-color:#000000;stop-opacity:0.3"
         id="stop3497" /><stop
         offset="7.248594e-02"
         style="stop-color:#000000;stop-opacity:0.3989"
         id="stop3499" /><stop
         offset="0.4978"
         style="stop-color:#000000"
         id="stop3501" /><stop
         offset="0.929"
         style="stop-color:#000000;stop-opacity:0.3989"
         id="stop3503" /><stop
         offset="1"
         style="stop-color:#000000;stop-opacity:0.3"
         id="stop3505" /></linearGradient><line
       class="st2"
       x1="25"
       y1="93.8"
       x2="403"
       y2="95.1"
       id="line3507" /><linearGradient
       id="SVGID_4_"
       gradientUnits="userSpaceOnUse"
       x1="259.6802"
       y1="114.1406"
       x2="220.7198"
       y2="46.6594"
       gradientTransform="matrix(1 0 0 -1 0 192)"><stop
         offset="0"
         style="stop-color:#000000;stop-opacity:0.2"
         id="stop3510" /><stop
         offset="1.364762e-02"
         style="stop-color:#000000;stop-opacity:0.2989"
         id="stop3512" /><stop
         offset="9.655885e-02"
         style="stop-color:#000000;stop-opacity:0.9"
         id="stop3514" /><stop
         offset="0.8702"
         style="stop-color:#000000;stop-opacity:0.2989"
         id="stop3516" /><stop
         offset="0.9975"
         style="stop-color:#000000;stop-opacity:0.2"
         id="stop3518" /></linearGradient><line
       class="st3"
       x1="81.7"
       y1="64.5"
       x2="398.7"
       y2="158.7"
       id="line3520" /></g></svg>