<?xml version="1.0" encoding="utf-8"?>
<!-- Generator: Adobe Illustrator 21.1.0, SVG Export Plug-In . SVG Version: 6.00 Build 0)  -->
<svg version="1.1" id="Layer_1" xmlns="http://www.w3.org/2000/svg" xmlns:xlink="http://www.w3.org/1999/xlink" x="0px" y="0px"
	 viewBox="0 0 120.8 117.8" style="enable-background:new 0 0 120.8 117.8;" xml:space="preserve">
<style type="text/css">
	.st0{fill:#323232;}
</style>
<title>Asset 1</title>
<g id="Layer_2">
	<g id="Layer_1-2">
		<path class="st0" d="M60.4,0C27,0,0,27,0,60.4c0,26,16.6,49.1,41.3,57.3c3,0.6,4.1-1.3,4.1-2.9c0-1.4-0.1-6.2-0.1-11.2
			C28.5,107.2,25,96.4,25,96.4c-2.8-7-6.7-8.8-6.7-8.8c-5.5-3.8,0.4-3.7,0.4-3.7c6.1,0.4,9.3,6.2,9.3,6.2c5.4,9.2,14.1,6.6,17.6,5
			c0.5-3.9,2.1-6.6,3.8-8.1C36,85.6,21.9,80.4,21.9,57.2c-0.1-6,2.1-11.8,6.2-16.2c-0.6-1.5-2.7-7.7,0.6-16c0,0,5.1-1.6,16.6,6.2
			c9.9-2.7,20.3-2.7,30.2,0C87,23.4,92.1,25,92.1,25c3.3,8.3,1.2,14.5,0.6,16c4.1,4.4,6.3,10.2,6.2,16.2c0,23.2-14.1,28.3-27.6,29.8
			c2.2,1.9,4.1,5.6,4.1,11.2c0,8.1-0.1,14.6-0.1,16.6c0,1.6,1.1,3.5,4.2,2.9c31.6-10.6,48.7-44.9,38-76.5C109.3,16.6,86.3,0,60.4,0z
			"/>
		<path class="st0" d="M22.9,86.7c-0.1,0.3-0.6,0.4-1,0.2s-0.7-0.6-0.5-0.9s0.6-0.4,1-0.2S23,86.4,22.9,86.7L22.9,86.7z"/>
		<path class="st0" d="M25.3,89.4c-0.3,0.3-0.9,0.1-1.2-0.3c-0.4-0.3-0.5-0.9-0.2-1.2c0.3-0.3,0.8-0.1,1.2,0.3S25.6,89.2,25.3,89.4z
			"/>
		<path class="st0" d="M27.7,92.9c-0.4,0.3-1,0-1.4-0.5s-0.4-1.2,0-1.4s1,0,1.4,0.5S28.1,92.7,27.7,92.9z"/>
		<path class="st0" d="M31,96.3c-0.3,0.4-1,0.3-1.5-0.2c-0.5-0.3-0.6-1-0.3-1.5c0.3-0.4,1-0.3,1.6,0.2S31.4,95.9,31,96.3z"/>
		<path class="st0" d="M35.5,98.2c-0.2,0.5-0.8,0.7-1.5,0.5s-1.1-0.8-1-1.2s0.8-0.7,1.5-0.5S35.6,97.7,35.5,98.2z"/>
		<path class="st0" d="M40.4,98.6c0,0.5-0.6,0.9-1.3,0.9s-1.3-0.4-1.3-0.9s0.6-0.9,1.3-0.9S40.4,98.1,40.4,98.6L40.4,98.6z"/>
		<path class="st0" d="M45,97.8c0.1,0.5-0.4,1-1.1,1.1s-1.3-0.2-1.4-0.7s0.4-1,1.1-1.1S44.9,97.3,45,97.8L45,97.8z"/>
	</g>
</g>
</svg>
